<svg xmlns="http://www.w3.org/2000/svg" version="1.1" xmlns:xlink="http://www.w3.org/1999/xlink" xmlns:svgjs="http://svgjs.dev/svgjs" viewBox="0 0 800 800"><defs><linearGradient x1="50%" y1="0%" x2="50%" y2="100%" id="ffflurry-grad" gradientTransform="rotate(270)"><stop stop-color="hsl(238, 82%, 13%)" stop-opacity="1" offset="0%"></stop><stop stop-color="hsl(1.4, 100%, 67%)" stop-opacity="1" offset="45%"></stop><stop stop-color="hsl(167, 52%, 78%)" stop-opacity="1" offset="100%"></stop></linearGradient></defs><rect width="100%" height="100%" fill="hsl(238, 82%, 13%)"></rect><g fill="url(#ffflurry-grad)"><rect width="390" height="3" x="54" y="686.5" rx="1.5" transform="rotate(45, 249, 688)" opacity="0.97"></rect><rect width="160" height="3" x="118" y="229.5" rx="1.5" transform="rotate(45, 198, 231)" opacity="0.84"></rect><rect width="262" height="3" x="155" y="25.5" rx="1.5" transform="rotate(45, 286, 27)" opacity="0.23"></rect><rect width="125" height="3" x="343.5" y="381.5" rx="1.5" transform="rotate(45, 406, 383)" opacity="0.15"></rect><rect width="388" height="3" x="358" y="564.5" rx="1.5" transform="rotate(45, 552, 566)" opacity="0.88"></rect><rect width="310" height="3" x="-10" y="69.5" rx="1.5" transform="rotate(45, 145, 71)" opacity="0.75"></rect><rect width="286" height="3" x="306" y="115.5" rx="1.5" transform="rotate(45, 449, 117)" opacity="0.40"></rect><rect width="659" height="3" x="55.5" y="43.5" rx="1.5" transform="rotate(45, 385, 45)" opacity="0.56"></rect><rect width="219" height="3" x="-70.5" y="171.5" rx="1.5" transform="rotate(45, 39, 173)" opacity="0.73"></rect><rect width="364" height="3" x="91" y="524.5" rx="1.5" transform="rotate(45, 273, 526)" opacity="0.24"></rect><rect width="347" height="3" x="99.5" y="337.5" rx="1.5" transform="rotate(45, 273, 339)" opacity="0.48"></rect><rect width="518" height="3" x="-40" y="57.5" rx="1.5" transform="rotate(45, 219, 59)" opacity="0.63"></rect><rect width="639" height="3" x="-266.5" y="55.5" rx="1.5" transform="rotate(45, 53, 57)" opacity="0.86"></rect><rect width="208" height="3" x="656" y="383.5" rx="1.5" transform="rotate(45, 760, 385)" opacity="0.21"></rect><rect width="390" height="3" x="261" y="598.5" rx="1.5" transform="rotate(45, 456, 600)" opacity="0.35"></rect><rect width="43" height="3" x="746.5" y="229.5" rx="1.5" transform="rotate(45, 768, 231)" opacity="0.74"></rect><rect width="397" height="3" x="403.5" y="691.5" rx="1.5" transform="rotate(45, 602, 693)" opacity="0.57"></rect><rect width="162" height="3" x="-18" y="585.5" rx="1.5" transform="rotate(45, 63, 587)" opacity="0.13"></rect><rect width="45" height="3" x="608.5" y="247.5" rx="1.5" transform="rotate(45, 631, 249)" opacity="0.72"></rect><rect width="427" height="3" x="340.5" y="754.5" rx="1.5" transform="rotate(45, 554, 756)" opacity="0.21"></rect><rect width="124" height="3" x="-7" y="348.5" rx="1.5" transform="rotate(45, 55, 350)" opacity="0.43"></rect><rect width="521" height="3" x="14.5" y="246.5" rx="1.5" transform="rotate(45, 275, 248)" opacity="0.41"></rect><rect width="489" height="3" x="-188.5" y="721.5" rx="1.5" transform="rotate(45, 56, 723)" opacity="0.69"></rect><rect width="476" height="3" x="144" y="563.5" rx="1.5" transform="rotate(45, 382, 565)" opacity="0.68"></rect><rect width="397" height="3" x="234.5" y="259.5" rx="1.5" transform="rotate(45, 433, 261)" opacity="0.92"></rect><rect width="363" height="3" x="-52.5" y="489.5" rx="1.5" transform="rotate(45, 129, 491)" opacity="0.15"></rect><rect width="287" height="3" x="525.5" y="384.5" rx="1.5" transform="rotate(45, 669, 386)" opacity="0.56"></rect><rect width="176" height="3" x="260" y="340.5" rx="1.5" transform="rotate(45, 348, 342)" opacity="0.96"></rect><rect width="248" height="3" x="224" y="245.5" rx="1.5" transform="rotate(45, 348, 247)" opacity="0.19"></rect><rect width="706" height="3" x="-199" y="652.5" rx="1.5" transform="rotate(45, 154, 654)" opacity="0.17"></rect><rect width="356" height="3" x="235" y="749.5" rx="1.5" transform="rotate(45, 413, 751)" opacity="0.26"></rect><rect width="622" height="3" x="334" y="578.5" rx="1.5" transform="rotate(45, 645, 580)" opacity="0.44"></rect><rect width="223" height="3" x="423.5" y="326.5" rx="1.5" transform="rotate(45, 535, 328)" opacity="0.69"></rect><rect width="559" height="3" x="46.5" y="754.5" rx="1.5" transform="rotate(45, 326, 756)" opacity="0.13"></rect><rect width="127" height="3" x="236.5" y="429.5" rx="1.5" transform="rotate(45, 300, 431)" opacity="0.26"></rect><rect width="479" height="3" x="493.5" y="490.5" rx="1.5" transform="rotate(45, 733, 492)" opacity="0.45"></rect><rect width="323" height="3" x="365.5" y="643.5" rx="1.5" transform="rotate(45, 527, 645)" opacity="0.58"></rect><rect width="228" height="3" x="330" y="472.5" rx="1.5" transform="rotate(45, 444, 474)" opacity="0.82"></rect><rect width="432" height="3" x="544" y="89.5" rx="1.5" transform="rotate(45, 760, 91)" opacity="0.59"></rect><rect width="150" height="3" x="650" y="757.5" rx="1.5" transform="rotate(45, 725, 759)" opacity="0.94"></rect><rect width="505" height="3" x="-63.5" y="379.5" rx="1.5" transform="rotate(45, 189, 381)" opacity="0.07"></rect><rect width="248" height="3" x="467" y="634.5" rx="1.5" transform="rotate(45, 591, 636)" opacity="0.71"></rect><rect width="438" height="3" x="355" y="289.5" rx="1.5" transform="rotate(45, 574, 291)" opacity="0.29"></rect><rect width="449" height="3" x="50.5" y="599.5" rx="1.5" transform="rotate(45, 275, 601)" opacity="0.77"></rect><rect width="455" height="3" x="105.5" y="656.5" rx="1.5" transform="rotate(45, 333, 658)" opacity="0.11"></rect><rect width="317" height="3" x="7.5" y="304.5" rx="1.5" transform="rotate(45, 166, 306)" opacity="0.49"></rect><rect width="542" height="3" x="307" y="48.5" rx="1.5" transform="rotate(45, 578, 50)" opacity="0.57"></rect><rect width="257" height="3" x="84.5" y="452.5" rx="1.5" transform="rotate(45, 213, 454)" opacity="0.95"></rect><rect width="183" height="3" x="89.5" y="558.5" rx="1.5" transform="rotate(45, 181, 560)" opacity="0.41"></rect><rect width="313" height="3" x="326.5" y="40.5" rx="1.5" transform="rotate(45, 483, 42)" opacity="0.92"></rect><rect width="454" height="3" x="-137" y="413.5" rx="1.5" transform="rotate(45, 90, 415)" opacity="0.32"></rect><rect width="293" height="3" x="338.5" y="771.5" rx="1.5" transform="rotate(45, 485, 773)" opacity="0.92"></rect><rect width="366" height="3" x="310" y="527.5" rx="1.5" transform="rotate(45, 493, 529)" opacity="0.81"></rect><rect width="602" height="3" x="409" y="297.5" rx="1.5" transform="rotate(45, 710, 299)" opacity="0.65"></rect><rect width="333" height="3" x="73.5" y="150.5" rx="1.5" transform="rotate(45, 240, 152)" opacity="0.44"></rect><rect width="478" height="3" x="-206" y="488.5" rx="1.5" transform="rotate(45, 33, 490)" opacity="0.73"></rect><rect width="436" height="3" x="404" y="124.5" rx="1.5" transform="rotate(45, 622, 126)" opacity="0.15"></rect><rect width="255" height="3" x="608.5" y="681.5" rx="1.5" transform="rotate(45, 736, 683)" opacity="0.65"></rect><rect width="111" height="3" x="426.5" y="703.5" rx="1.5" transform="rotate(45, 482, 705)" opacity="0.72"></rect><rect width="304" height="3" x="399" y="207.5" rx="1.5" transform="rotate(45, 551, 209)" opacity="0.68"></rect><rect width="249" height="3" x="363.5" y="172.5" rx="1.5" transform="rotate(45, 488, 174)" opacity="0.17"></rect><rect width="354" height="3" x="452" y="760.5" rx="1.5" transform="rotate(45, 629, 762)" opacity="0.72"></rect><rect width="99" height="3" x="-1.5" y="270.5" rx="1.5" transform="rotate(45, 48, 272)" opacity="0.26"></rect><rect width="262" height="3" x="386" y="418.5" rx="1.5" transform="rotate(45, 517, 420)" opacity="0.69"></rect><rect width="47" height="3" x="163.5" y="758.5" rx="1.5" transform="rotate(45, 187, 760)" opacity="0.18"></rect><rect width="245" height="3" x="624.5" y="591.5" rx="1.5" transform="rotate(45, 747, 593)" opacity="0.37"></rect><rect width="164" height="3" x="518" y="482.5" rx="1.5" transform="rotate(45, 600, 484)" opacity="0.74"></rect><rect width="295" height="3" x="210.5" y="163.5" rx="1.5" transform="rotate(45, 358, 165)" opacity="0.19"></rect><rect width="152" height="3" x="405" y="644.5" rx="1.5" transform="rotate(45, 481, 646)" opacity="0.85"></rect><rect width="218" height="3" x="360" y="345.5" rx="1.5" transform="rotate(45, 469, 347)" opacity="0.69"></rect><rect width="219" height="3" x="206.5" y="91.5" rx="1.5" transform="rotate(45, 316, 93)" opacity="0.08"></rect><rect width="384" height="3" x="504" y="36.5" rx="1.5" transform="rotate(45, 696, 38)" opacity="0.44"></rect><rect width="602" height="3" x="60" y="476.5" rx="1.5" transform="rotate(45, 361, 478)" opacity="0.15"></rect><rect width="316" height="3" x="246" y="658.5" rx="1.5" transform="rotate(45, 404, 660)" opacity="0.99"></rect><rect width="185" height="3" x="508.5" y="391.5" rx="1.5" transform="rotate(45, 601, 393)" opacity="0.93"></rect><rect width="373" height="3" x="-63.5" y="187.5" rx="1.5" transform="rotate(45, 123, 189)" opacity="0.93"></rect><rect width="219" height="3" x="586.5" y="181.5" rx="1.5" transform="rotate(45, 696, 183)" opacity="0.21"></rect></g></svg>